<?xml version="1.0" standalone="no"?>
<!DOCTYPE svg PUBLIC "-//W3C//DTD SVG 20010904//EN"
 "http://www.w3.org/TR/2001/REC-SVG-20010904/DTD/svg10.dtd">
<svg version="1.0" xmlns="http://www.w3.org/2000/svg"
 width="768.000000pt" height="768.000000pt" viewBox="0 0 768.000000 768.000000"
 preserveAspectRatio="xMidYMid meet">
<metadata>
Created by potrace 1.11, written by Peter Selinger 2001-2013
</metadata>
<g transform="translate(0.000000,768.000000) scale(0.100000,-0.100000)"
fill="#000000" stroke="none">
<path d="M3298 7675 c-1 -1 -43 -6 -92 -10 -50 -4 -97 -8 -105 -10 -9 -1 -47
-6 -86 -10 -38 -4 -72 -8 -75 -10 -3 -2 -24 -6 -46 -9 -22 -4 -51 -9 -64 -11
-14 -3 -41 -8 -60 -11 -19 -3 -38 -8 -41 -10 -4 -2 -24 -6 -44 -10 -21 -3
-101 -23 -179 -45 -78 -22 -149 -41 -159 -44 -9 -2 -22 -7 -27 -10 -5 -3 -18
-8 -27 -10 -26 -5 -166 -56 -178 -65 -5 -3 -32 -15 -60 -25 -27 -10 -92 -38
-143 -62 -51 -23 -97 -43 -103 -43 -5 0 -9 -4 -9 -10 0 -5 -6 -10 -13 -10 -16
0 -122 -56 -150 -79 -73 -59 -106 -131 -102 -221 3 -82 26 -133 87 -191 35
-34 63 -51 105 -62 91 -26 135 -15 328 78 141 69 328 149 370 159 6 1 55 17
110 34 55 18 154 46 220 62 116 28 136 32 219 45 21 4 46 8 55 10 9 2 44 6 76
10 33 4 68 9 78 11 119 21 584 21 707 0 14 -3 51 -8 83 -11 32 -3 82 -11 110
-16 29 -6 63 -12 77 -14 106 -12 423 -107 597 -178 109 -45 343 -156 353 -168
3 -3 25 -17 50 -30 25 -13 65 -38 90 -54 25 -17 53 -34 61 -40 24 -15 139 -96
158 -111 115 -92 148 -119 159 -132 6 -9 12 -13 12 -9 0 8 242 -232 280 -278
14 -17 45 -55 70 -85 25 -30 49 -60 55 -67 5 -6 21 -28 35 -48 14 -20 35 -49
48 -65 12 -15 22 -33 22 -39 0 -6 5 -11 10 -11 6 0 10 -6 10 -14 0 -8 3 -16 8
-18 7 -3 112 -174 112 -183 0 -2 14 -27 30 -55 17 -28 30 -57 30 -65 0 -8 4
-15 10 -15 5 0 13 -12 16 -27 4 -16 10 -32 15 -38 18 -24 131 -330 143 -388 3
-12 10 -38 16 -57 9 -30 42 -169 55 -235 4 -23 21 -143 31 -230 9 -69 9 -441
0 -530 -5 -53 -17 -151 -21 -165 -1 -3 -5 -27 -10 -55 -12 -76 -13 -84 -18
-93 -3 -4 -8 -23 -11 -42 -8 -52 -12 -67 -41 -160 -14 -47 -27 -92 -29 -100
-16 -62 -139 -342 -165 -372 -8 -10 -11 -18 -8 -18 7 0 -150 -261 -162 -270
-3 -3 -15 -18 -25 -35 -67 -106 -322 -376 -461 -487 -136 -108 -284 -203 -445
-283 -92 -46 -267 -120 -310 -131 -8 -2 -55 -15 -105 -29 -49 -14 -99 -28
-110 -30 -11 -3 -33 -8 -50 -12 -34 -7 -44 -9 -100 -17 -22 -3 -51 -7 -64 -10
-77 -17 -335 -23 -471 -12 -130 11 -139 12 -235 31 -49 9 -97 18 -105 19 -8 1
-22 5 -30 8 -8 3 -49 15 -90 27 -98 28 -91 26 -123 39 -16 7 -33 12 -38 12
-22 0 -262 121 -352 177 -143 91 -239 166 -352 278 -124 122 -174 182 -258
306 -125 185 -247 466 -273 629 -3 19 -8 38 -11 42 -6 10 -10 34 -17 94 -3 27
-8 69 -12 94 -11 92 -5 324 11 420 16 94 20 115 35 170 7 25 13 52 15 60 2 8
15 49 30 90 107 295 297 550 541 728 40 29 77 52 83 52 6 0 11 4 11 8 0 18
294 145 357 155 10 1 24 6 31 10 6 5 12 6 12 3 0 -2 14 -1 31 4 51 15 167 25
279 23 96 -1 125 -3 200 -18 14 -3 34 -7 46 -9 41 -8 109 -30 119 -38 5 -4 15
-8 22 -8 7 0 46 -15 85 -34 419 -195 641 -635 517 -1025 -36 -115 -141 -243
-240 -295 -57 -29 -67 -32 -139 -42 -222 -30 -329 -273 -194 -441 93 -115 220
-132 452 -60 115 35 253 121 358 223 183 179 278 365 332 654 4 19 7 107 6
195 0 125 -5 183 -23 265 -12 58 -26 109 -32 115 -5 5 -9 17 -9 27 0 30 -89
222 -136 293 -24 38 -44 72 -44 76 0 5 -3 9 -8 9 -4 0 -14 11 -22 24 -39 62
-142 173 -230 246 -36 30 -67 57 -70 60 -36 36 -340 210 -340 195 0 -4 -6 -3
-12 3 -25 20 -202 77 -298 96 -14 3 -34 7 -45 9 -28 7 -113 18 -160 23 -55 5
-295 5 -320 0 -11 -2 -49 -7 -85 -11 -36 -4 -68 -9 -71 -11 -3 -2 -21 -6 -40
-9 -19 -3 -47 -8 -64 -12 -41 -9 -44 -10 -52 -13 -5 -2 -12 -4 -18 -5 -5 -1
-17 -4 -25 -8 -8 -3 -37 -12 -65 -20 -27 -9 -68 -24 -90 -33 -22 -10 -43 -18
-46 -18 -15 -2 -192 -92 -248 -127 -34 -21 -65 -39 -67 -39 -3 0 -10 -5 -17
-10 -7 -6 -57 -45 -112 -88 -124 -97 -286 -257 -346 -342 -13 -19 -26 -37 -29
-40 -10 -9 -80 -110 -80 -115 0 -2 -13 -23 -29 -47 -106 -158 -242 -501 -274
-693 -3 -16 -10 -55 -17 -85 -24 -123 -34 -477 -17 -620 12 -101 14 -113 26
-171 6 -30 13 -63 15 -74 58 -280 179 -564 352 -827 36 -53 70 -103 77 -110 6
-7 31 -39 55 -71 50 -67 282 -304 361 -368 80 -65 252 -187 284 -201 15 -7 27
-16 27 -20 0 -5 5 -8 10 -8 6 0 35 -16 65 -35 30 -19 55 -32 55 -28 0 3 8 0
18 -9 14 -12 64 -38 82 -43 3 -1 30 -13 60 -27 104 -49 282 -112 400 -143 69
-19 226 -52 280 -60 163 -25 213 -28 440 -28 201 -1 266 3 378 18 90 13 112
17 177 31 39 8 80 17 93 19 49 11 62 14 133 36 41 13 76 23 79 24 39 9 232 81
300 113 30 14 57 26 60 27 10 2 115 57 195 102 44 24 94 52 110 61 17 9 32 19
35 22 3 3 30 21 60 40 132 83 320 241 464 389 137 141 133 137 204 227 35 43
70 87 78 97 107 132 374 608 374 666 0 6 4 11 8 11 5 0 9 6 9 13 1 19 7 41 14
47 11 10 89 249 113 348 3 9 5 18 6 20 2 1 3 5 4 10 18 72 30 130 40 187 2 11
7 31 10 45 3 14 8 42 11 63 3 20 7 52 10 70 34 239 37 500 9 817 -2 30 -6 62
-9 70 -2 8 -7 38 -10 66 -6 52 -9 70 -19 114 -3 14 -8 36 -10 50 -5 28 -7 36
-29 130 -19 78 -84 297 -97 325 -5 11 -25 61 -43 110 -19 50 -47 117 -62 150
-16 33 -29 62 -29 65 -3 12 -92 182 -134 255 -91 157 -284 435 -303 435 -5 0
-9 6 -9 13 0 42 -414 450 -600 590 -70 53 -105 78 -201 143 -60 41 -114 74
-119 74 -6 0 -10 5 -10 12 0 6 -3 8 -7 5 -3 -4 -13 -1 -22 7 -43 36 -340 185
-501 251 -97 39 -270 101 -305 109 -5 2 -30 9 -55 16 -25 7 -49 14 -55 16 -5
1 -57 14 -115 28 -58 15 -121 29 -140 32 -19 2 -46 7 -60 11 -40 10 -52 12
-100 19 -25 3 -56 7 -70 9 -14 2 -52 7 -85 11 -33 4 -73 9 -90 11 -36 5 -582
13 -587 8z"/>
<path d="M3318 6645 c-1 -2 -37 -6 -78 -10 -41 -4 -84 -9 -95 -11 -11 -3 -40
-7 -65 -11 -76 -10 -85 -11 -85 -13 0 -2 -32 -9 -65 -14 -14 -2 -32 -6 -40 -9
-8 -2 -55 -15 -105 -27 -103 -26 -245 -74 -355 -120 -41 -17 -79 -32 -85 -33
-5 -1 -12 -5 -15 -8 -3 -3 -40 -22 -82 -42 -405 -194 -788 -515 -1082 -907
-47 -63 -91 -121 -96 -127 -6 -7 -8 -13 -4 -13 4 0 -2 -10 -13 -22 -11 -13
-33 -45 -49 -73 -15 -27 -36 -63 -46 -80 -82 -142 -190 -385 -268 -605 -13
-35 -71 -248 -77 -279 -2 -14 -8 -45 -14 -69 -5 -23 -12 -59 -15 -78 -3 -20
-8 -46 -10 -58 -41 -199 -51 -658 -20 -911 5 -39 18 -130 22 -150 2 -11 8 -45
14 -75 5 -30 12 -66 15 -80 3 -14 8 -36 11 -50 3 -14 19 -74 35 -135 37 -134
35 -127 42 -145 3 -8 17 -51 31 -95 15 -44 31 -89 36 -100 4 -11 32 -74 60
-140 145 -336 386 -710 609 -945 115 -120 146 -152 213 -215 183 -173 457
-378 628 -471 19 -10 37 -21 40 -24 18 -18 384 -200 403 -200 7 0 17 -4 23 -9
10 -9 225 -89 324 -120 98 -30 208 -59 290 -76 14 -3 32 -8 40 -11 8 -3 29 -8
45 -10 17 -2 41 -6 55 -9 59 -12 87 -17 115 -20 17 -1 41 -5 55 -8 26 -7 73
-12 200 -24 161 -15 642 -8 774 12 17 3 78 12 136 21 58 8 114 17 125 18 11 2
29 6 40 9 11 3 36 9 55 12 94 15 345 86 480 135 47 17 92 32 100 34 8 2 29 10
45 17 17 7 32 13 35 14 45 15 285 127 355 165 162 87 239 133 243 142 2 4 8 8
13 8 8 0 140 87 273 180 43 29 172 135 189 155 53 60 75 151 58 232 -36 162
-194 252 -351 201 -36 -11 -113 -60 -140 -87 -8 -9 -23 -20 -31 -26 -9 -5 -55
-38 -103 -72 -47 -35 -91 -63 -96 -63 -6 0 -10 -4 -10 -10 0 -5 -7 -10 -15
-10 -8 0 -15 -4 -15 -9 0 -5 -13 -14 -30 -21 -16 -7 -30 -16 -30 -21 0 -5 -5
-9 -12 -9 -6 0 -32 -13 -57 -29 -108 -67 -402 -208 -518 -247 -27 -9 -59 -21
-73 -27 -14 -5 -29 -11 -35 -12 -5 -2 -46 -14 -90 -28 -73 -24 -202 -58 -265
-72 -14 -2 -47 -9 -75 -15 -27 -6 -61 -13 -75 -15 -14 -2 -38 -6 -55 -8 -32
-6 -120 -17 -170 -23 -221 -25 -592 -20 -781 11 -19 3 -51 7 -71 10 -21 3 -47
8 -59 10 -12 3 -39 7 -60 10 -21 3 -46 8 -54 11 -8 3 -26 8 -40 10 -26 5 -173
42 -200 51 -8 2 -17 5 -20 5 -9 1 -205 69 -225 78 -11 5 -48 21 -82 35 -104
42 -243 110 -336 164 -49 28 -92 51 -97 51 -5 0 -10 3 -12 8 -1 4 -28 23 -58
42 -30 19 -59 38 -65 42 -5 4 -50 38 -100 74 -133 99 -187 146 -325 284 -135
135 -179 183 -225 245 -17 22 -37 48 -47 58 -32 36 -156 223 -211 318 -76 133
-154 296 -197 414 -12 33 -26 69 -31 80 -5 11 -16 43 -24 70 -35 124 -73 273
-79 305 -3 19 -8 46 -11 60 -3 14 -8 41 -11 60 -3 19 -7 47 -10 61 -21 133
-30 388 -19 554 7 107 17 210 21 216 2 4 6 26 8 50 3 24 14 87 26 139 150 678
528 1240 1086 1616 33 22 67 44 75 47 8 4 37 21 64 37 92 55 319 161 375 175
3 1 12 4 20 8 30 12 216 65 255 73 22 4 42 8 45 9 13 3 139 25 170 30 152 23
462 23 592 0 13 -2 39 -6 58 -9 19 -2 67 -12 105 -21 39 -8 79 -17 90 -19 87
-17 318 -101 403 -148 18 -10 39 -18 47 -18 8 0 15 -4 15 -9 0 -5 11 -12 25
-15 14 -4 25 -11 25 -16 0 -6 6 -10 13 -10 13 0 210 -128 257 -166 48 -40 116
-101 169 -153 102 -97 141 -115 246 -115 137 1 258 125 257 264 -1 68 -2 75
-30 131 -32 66 -202 226 -375 352 -91 67 -267 179 -267 170 0 -3 -8 1 -17 9
-22 19 -135 76 -223 112 -36 15 -78 33 -95 40 -24 11 -152 56 -175 61 -3 1
-12 4 -20 7 -8 4 -35 11 -60 17 -25 7 -52 14 -60 16 -76 21 -236 52 -315 61
-27 3 -61 8 -75 11 -28 6 -496 13 -502 8z"/>
<path d="M921 6614 c-79 -21 -135 -67 -172 -140 -66 -132 -25 -274 102 -356
25 -16 104 -42 124 -40 6 1 29 3 51 5 152 17 263 173 229 322 -22 95 -59 144
-145 189 -59 31 -122 37 -189 20z"/>
<path d="M310 5772 c-135 -38 -191 -182 -113 -294 84 -122 271 -102 328 35 35
85 0 194 -77 235 -41 22 -106 34 -138 24z"/>
<path d="M5690 5031 c-99 -35 -163 -94 -208 -191 -22 -45 -26 -69 -25 -130 1
-85 10 -128 29 -151 8 -9 12 -18 9 -21 -8 -8 65 -87 108 -116 66 -44 115 -59
192 -57 79 2 115 9 157 31 181 94 243 331 130 499 -44 65 -119 121 -187 140
-55 15 -158 13 -205 -4z"/>
<path d="M2998 4085 c-1 -1 -23 -6 -48 -9 -170 -23 -294 -181 -285 -361 7
-126 79 -232 199 -290 51 -25 72 -29 141 -29 72 0 90 4 148 33 124 60 189 160
194 294 2 58 -3 92 -16 127 -47 123 -151 209 -274 226 -18 3 -37 7 -44 9 -6 2
-13 2 -15 0z"/>
<path d="M5734 3905 c-49 -15 -103 -50 -136 -90 -23 -29 -68 -126 -68 -149 0
-45 -123 -319 -181 -402 -16 -24 -29 -47 -29 -52 0 -6 -4 -12 -8 -14 -4 -1
-25 -25 -46 -53 -57 -76 -244 -265 -262 -265 -4 0 -37 -26 -59 -47 -8 -7 -17
-13 -20 -13 -4 0 -19 -8 -33 -19 -29 -20 -210 -115 -227 -118 -6 -1 -37 -12
-70 -24 -33 -12 -109 -32 -170 -45 -92 -19 -134 -22 -260 -19 -82 1 -166 6
-185 9 -51 10 -182 45 -205 55 -104 44 -206 101 -284 159 -101 74 -149 95
-220 94 -171 -4 -292 -156 -260 -326 14 -77 58 -135 156 -208 228 -168 454
-264 738 -313 152 -26 398 -26 565 1 66 10 205 44 270 66 36 12 67 23 70 23
48 9 252 110 370 183 58 36 107 68 110 71 3 4 38 32 78 65 102 81 235 215 313
316 74 94 179 252 179 268 0 6 3 12 8 14 11 5 96 183 130 273 32 84 57 160 53
160 -1 0 2 12 7 26 6 14 13 42 16 62 3 20 7 40 8 44 6 21 -16 103 -37 139 -64
110 -194 164 -311 129z"/>
<path d="M7184 2166 c-131 -31 -215 -143 -209 -278 8 -150 130 -261 283 -254
103 5 181 56 237 156 25 45 26 167 1 223 -51 116 -187 182 -312 153z"/>
</g>
</svg>
