<?xml version="1.0" encoding="UTF-8"?>
<svg width="46px" height="48px" viewBox="0 0 46 48" version="1.1" xmlns="http://www.w3.org/2000/svg" xmlns:xlink="http://www.w3.org/1999/xlink">
    <!-- Generator: Sketch 52.6 (67491) - http://www.bohemiancoding.com/sketch -->
    <title>Combined Shape</title>
    <desc>Created with Sketch.</desc>
    <defs>
        <linearGradient x1="24.979506%" y1="-9.28405762%" x2="74.5040698%" y2="96.4202881%" id="linearGradient-1">
            <stop stop-color="#FA9815" offset="0%"></stop>
            <stop stop-color="#BA02FD" offset="72.1729166%"></stop>
            <stop stop-color="#5225EE" offset="100%"></stop>
        </linearGradient>
    </defs>
    <g id="Page-1" stroke="none" stroke-width="1" fill="none" fill-rule="evenodd">
        <g id="Desktop-HD-Copy-3" transform="translate(-32.000000, -21.000000)" fill="url(#linearGradient-1)">
            <g id="Header">
                <g id="Group-7" transform="translate(32.000000, 21.000000)">
                    <path d="M18.0300063,6.6952173 C19.0113404,6.52194126 20.0163415,6.43488061 21.0348665,6.43488061 C21.5876594,6.43488061 22.1446785,6.46023808 22.703388,6.51179827 C24.200324,6.65126435 25.6862717,6.99612594 27.1215045,7.5370853 C28.4865817,8.05015144 29.7891104,8.75170811 30.9927449,9.62231457 C31.7314926,10.1548214 32.4465732,10.7760795 33.1177009,11.4700289 C33.7685426,12.1470733 33.7474114,13.2281468 33.0695217,13.880679 C32.7533986,14.1883497 32.3350004,14.3565542 31.8887089,14.3565542 C31.4170599,14.3565542 30.979221,14.1731352 30.6554906,13.8375713 C30.1255195,13.2881595 29.5659646,12.7996056 28.9920406,12.3862788 C28.0428259,11.6982461 26.980348,11.1260125 25.9229415,10.7312813 C24.7843911,10.3044305 23.562161,10.0212721 22.3881102,9.91138973 C21.0898077,9.79136437 19.8582799,9.83869832 18.6225259,10.0567726 C17.3191519,10.2832993 16.0284567,10.6881736 14.8907516,11.2249067 C13.6609143,11.8013665 12.4801014,12.5578643 11.4759456,13.4132563 C10.4007889,14.3278157 9.42875255,15.4038177 8.66380221,16.5229274 C7.83968444,17.7274072 7.1609495,19.0645911 6.69944354,20.388251 C6.20666338,21.7879834 5.89054025,23.3043601 5.78572938,24.7734028 C5.75530042,25.1850391 5.74008593,25.6110446 5.74008593,26.0412763 C5.74008593,27.1730647 5.84827781,28.2955554 6.06128055,29.3808551 C6.37233218,30.9648517 6.88286258,32.4846094 7.57765725,33.8961752 C8.31133338,35.382123 9.22758329,36.7522716 10.3010495,37.9719659 C11.4294569,39.2482919 12.7083187,40.3640206 14.10467,41.2861872 C15.5686413,42.2539973 17.1357329,43.0181024 18.7628372,43.5573713 C20.4710854,44.1203071 22.2317391,44.4567162 23.9940833,44.5564556 C24.3676833,44.5775868 24.7514264,44.5885751 25.1689794,44.5885751 C26.6194266,44.5885751 28.0588857,44.438966 29.4459393,44.1448193 C31.3156301,43.7509333 33.0957244,43.122068 34.7355075,42.2776643 C36.1327041,41.5659646 37.4479115,40.7088822 38.6456294,39.7334648 C38.9482285,39.4858069 39.330281,39.3497218 39.7207861,39.3497218 C40.2346975,39.3497218 40.7173346,39.577939 41.0427555,39.9768965 C41.6378108,40.7029654 41.5279284,41.7806579 40.7993238,42.3774037 C39.4131154,43.5075016 37.8967387,44.4964429 36.2933014,45.3188702 C34.3754314,46.2976685 32.3104881,47.0262732 30.1551032,47.4843981 C28.5305346,47.826724 26.8527154,48 25.1689794,48 C24.7488906,48 24.3025991,47.9881665 23.8072832,47.9644995 C21.7389589,47.8470099 19.6833134,47.4539691 17.696133,46.7946749 C15.7960132,46.1666549 13.9550609,45.2723815 12.223991,44.1363668 C10.5782912,43.0485314 9.07205748,41.7341692 7.7458618,40.2279355 C6.47883356,38.7952384 5.39353385,37.1723604 4.51954638,35.40579 C3.68782137,33.7212087 3.08008734,31.9166021 2.71324928,30.0418398 C2.45798408,28.7460731 2.32781574,27.4004367 2.32781574,26.0412763 C2.32781574,25.5442699 2.34641121,25.0362753 2.38191167,24.5308164 C2.50785377,22.7557935 2.87553709,20.9841516 3.47566387,19.2674509 C4.04789744,17.6327393 4.84496725,16.0605762 5.84489681,14.5949144 C6.80002817,13.2053251 7.95125731,11.9332253 9.26646475,10.8149609 C10.5225048,9.74910192 11.9239276,8.84891174 13.4352328,8.13721209 C14.8730013,7.46354864 16.4189618,6.97753046 18.0300063,6.6952173 Z M34.6467564,16.5229274 C34.8386279,16.4696767 35.0347256,16.4417835 35.2282877,16.4417835 C36.1918715,16.4417835 37.0447278,17.0909347 37.3025287,18.0207086 C37.4588998,18.5768824 37.3878989,19.1575685 37.1022047,19.6596464 C36.8224273,20.1600338 36.3617666,20.5192646 35.803057,20.6705642 C35.6154117,20.7238149 35.4226949,20.7517081 35.2282877,20.7517081 C34.2604776,20.7517081 33.4076213,20.1050926 33.1540466,19.1778545 C32.9985208,18.6242164 33.066986,18.0426851 33.3476086,17.5422977 C33.6341481,17.0402198 34.0948088,16.6776079 34.6467564,16.5229274 Z M42.8803268,35.1370008 C43.1989857,34.6771853 43.7255758,34.4024794 44.2885117,34.4024794 C44.6333732,34.4024794 44.9680919,34.5081355 45.2563218,34.7059238 C45.6299218,34.9637247 45.8809608,35.3533845 45.9621047,35.8013665 C46.0440938,36.251039 45.9468902,36.7066282 45.6865535,37.0819187 C45.3729661,37.5408889 44.8480665,37.8147496 44.2842854,37.8147496 C43.9326618,37.8147496 43.5979432,37.710784 43.3156301,37.5121505 C42.9394943,37.2518138 42.6884553,36.862154 42.6073114,36.4167078 C42.5270127,35.9678805 42.6242164,35.5131366 42.8803268,35.1370008 Z M33.654434,24.7919983 C33.854758,24.0456434 34.5326477,23.5241248 35.3043601,23.5241248 C35.4412904,23.5241248 35.585828,23.5427203 35.7421991,23.579066 C36.6499965,23.8216525 37.1951821,24.7598788 36.9559766,25.6693668 C36.7869268,26.2906248 36.5815313,26.8975136 36.3431711,27.4714376 C35.8918081,28.5525111 35.2849193,29.5845601 34.5377192,30.5371557 C33.8437698,31.4246672 33.0188068,32.2242727 32.0848066,32.9139959 C31.2234979,33.5496232 30.2514616,34.078749 29.1999718,34.486159 C28.2380785,34.8504614 27.2060294,35.0879763 26.1342537,35.191942 C25.7707966,35.2215257 25.4555188,35.2358949 25.1689794,35.2358949 C24.4809467,35.2358949 23.7946045,35.1725012 23.1302388,35.0482496 C22.2063816,34.8791998 21.2892865,34.5740649 20.4043108,34.142988 C19.6993731,33.7972811 19.0155667,33.3467634 18.3714869,32.8049588 C18.0232443,32.5125026 17.8110868,32.1017116 17.7722054,31.6469677 C17.7333239,31.1922237 17.8736353,30.7493132 18.1652462,30.4002254 C18.4957385,30.0147919 18.9716137,29.7933366 19.4711559,29.7933366 C19.8734944,29.7933366 20.2631542,29.9378742 20.5725153,30.1999014 C20.9900683,30.551525 21.4760865,30.8718743 21.9046277,31.0798056 C22.4675636,31.3570473 23.154751,31.5861097 23.7421991,31.6917659 C24.4217792,31.8193985 25.1579911,31.8548989 25.8164401,31.7923505 C26.5543425,31.7238853 27.343805,31.5438473 27.9802775,31.2995703 C28.7190251,31.0172572 29.4560823,30.6166091 30.0536733,30.1720082 C30.7273368,29.6775375 31.3654998,29.0605057 31.8506727,28.4350215 C32.398394,27.7402268 32.8742692,26.9313235 33.1903923,26.1596112 C33.3729661,25.7268437 33.5293372,25.266183 33.654434,24.7919983 Z M16.433331,22.9687962 C16.8213003,22.6535183 17.292104,22.486159 17.7789674,22.486159 C17.8550398,22.486159 17.930267,22.4903853 18.0071846,22.4979925 C19.1837712,22.6171726 20.0484609,23.6762696 19.9360428,24.8596182 C19.8219342,25.9652039 18.9006128,26.7994647 17.7899556,26.7994647 C17.716419,26.7994647 17.6479538,26.7943932 17.5837149,26.7884764 C17.0064098,26.7318448 16.4865817,26.4529126 16.1214341,26.0057759 C15.7571318,25.5594844 15.5889272,24.9990843 15.6455589,24.427696 C15.7038811,23.8537719 15.9828133,23.3356343 16.433331,22.9687962 Z M21.066986,1.66977543e-13 L21.2216665,1.66977543e-13 C21.6417553,0.000845248996 22.0635345,0.0126787349 22.486159,0.0346552088 C24.5358879,0.146228076 26.5932239,0.53926886 28.6006903,1.20109882 C30.514334,1.83757132 32.3561316,2.73269 34.0736775,3.86363316 C35.7016271,4.93878989 37.2087061,6.25315207 38.5518067,7.77206452 C39.8205255,9.20645207 40.9049799,10.8293301 41.7738959,12.59421 C42.6022399,14.2686483 43.2116644,16.0732549 43.583574,17.9564697 C43.8371487,19.2649151 43.9647813,20.6113968 43.9647813,21.9578784 C43.9647813,22.4286821 43.9478763,22.937522 43.9149116,23.4674931 C43.79066,25.2273015 43.4204409,26.9989434 42.8169332,28.7325491 C42.2489258,30.3621892 41.451856,31.9351976 40.4485455,33.4042403 C39.4959498,34.7904487 38.3464112,36.0617032 37.0303585,37.1850391 C35.7912235,38.2407551 34.3872649,39.1401 32.856519,39.8577164 C31.4170599,40.5347609 29.8719448,41.0216243 28.2634359,41.3039375 C26.7436782,41.5685004 25.1968726,41.6361203 23.589209,41.4831302 C22.1117137,41.3487356 20.6266113,41.0055646 19.1719377,40.4629147 C17.8203846,39.9557653 16.5195464,39.2542086 15.3049236,38.3776854 C14.1604564,37.5484962 13.1241812,36.5612453 12.2223005,35.4421357 C11.3694442,34.3830387 10.6552088,33.1979996 10.0981898,31.9166021 C9.57244488,30.7070508 9.20898781,29.4222723 9.01965204,28.0969219 C8.92498415,27.4452349 8.87595971,26.7715715 8.87595971,26.0953723 C8.87595971,25.4910192 8.91568641,24.872297 8.99344932,24.2569557 C9.14643939,23.0440234 9.46847926,21.8420793 9.95449743,20.6849334 C10.3982532,19.614003 11.0042967,18.5819539 11.7548778,17.6158343 C12.451363,16.7300134 13.2788617,15.9312531 14.2128619,15.2389942 C15.0690991,14.6033669 16.0402902,14.0759315 17.0968514,13.6710573 C18.0528281,13.3076002 19.1110798,13.0633232 20.1558076,12.9652744 C20.4668592,12.9348454 20.7897443,12.9204762 21.1202367,12.9204762 C21.7947454,12.9204762 22.4954568,12.9821793 23.1623582,13.1030499 C24.0980489,13.2788617 25.0159893,13.5839966 25.887441,14.0091569 C26.6921181,14.4064239 27.4545326,14.9245615 28.1518631,15.5466648 C28.7815736,16.1172079 29.3419737,16.7900261 29.8195393,17.5439882 C30.2413186,18.2134254 30.5777277,18.9741495 30.8211594,19.7999577 C31.0240192,20.5260266 31.12883,21.2825245 31.1330563,22.0483201 L31.1330563,22.119321 C31.12883,22.8335564 31.0164119,23.5672325 30.7991829,24.2983729 C30.6022399,24.9483694 30.303867,25.5831514 29.9116715,26.1807424 C29.5524407,26.7174755 29.1230542,27.1925055 28.5989998,27.6311897 C28.1273508,28.0115517 27.6075227,28.3192224 27.0150032,28.5711066 C26.5002465,28.7705853 25.9812636,28.8914559 25.3836726,28.9480876 C24.4454462,29.027541 23.6171022,28.3234486 23.5401845,27.387758 C23.4632669,26.4520673 24.1639783,25.6262591 25.0852997,25.5459604 C25.2365993,25.5451152 25.6304853,25.456364 25.724308,25.4107206 C25.8992745,25.3422554 26.2872438,25.1224907 26.4224836,25.0058463 C26.6270339,24.8435585 26.9448475,24.4953159 27.0598014,24.3093611 C27.2406847,24.0388815 27.4536874,23.5951257 27.5322956,23.3254913 C27.6371064,22.9857012 27.7165598,22.4954568 27.7207861,22.1548214 L27.7207861,22.0863563 C27.7250123,21.667958 27.6523209,21.1160104 27.5424385,20.7457914 C27.4071987,20.2749877 27.1679932,19.7314926 26.9338593,19.3621188 C26.6481651,18.9031486 26.2416003,18.4137494 25.8722265,18.0857928 C25.432697,17.6876805 24.8765232,17.3098542 24.3879693,17.0765655 C23.8140452,16.7942523 23.1285483,16.5634993 22.553779,16.4612242 C21.864901,16.3352821 21.1067127,16.2997816 20.4770022,16.3648658 C19.7576953,16.4282595 18.9682327,16.6074523 18.3131648,16.857646 C17.5811791,17.1348877 16.8458125,17.5338452 16.24315,17.9801366 C15.5762485,18.4712263 14.936395,19.0891033 14.4427696,19.7221948 C13.9018102,20.4102275 13.4259351,21.2174403 13.1013594,21.9950694 C12.7438191,22.8614496 12.4868634,23.816581 12.3795168,24.6829612 C12.3195041,25.1563006 12.2890752,25.6313306 12.2890752,26.0953723 C12.2890752,26.6194266 12.3254209,27.1282665 12.397267,27.6058322 C12.5434951,28.633655 12.8308798,29.6538705 13.2281468,30.5557512 C13.6583785,31.546383 14.2289216,32.4955977 14.8797633,33.3002747 C15.5821652,34.1742622 16.419807,34.9738677 17.3014017,35.6137212 C18.2455448,36.2958371 19.3063323,36.8672255 20.3696556,37.2687187 C21.5124322,37.6955695 22.7346623,37.9787279 23.9061774,38.0886103 C25.1825033,38.2018736 26.4858773,38.1528492 27.6742974,37.9432274 C28.9683736,37.7167007 30.2582236,37.3126717 31.406917,36.7742481 C32.6401352,36.1918715 33.8217933,35.4345284 34.8217229,34.5825174 C35.8951891,33.6688033 36.8663802,32.5944918 37.6330211,31.4770726 C38.4537578,30.276819 39.133338,28.9404804 39.5973797,27.6100585 C40.0935409,26.1798972 40.4079735,24.6643657 40.5068676,23.2265972 C40.5372966,22.8183419 40.5525111,22.3914912 40.5525111,21.9578784 C40.5525111,20.8117208 40.4443192,19.6866944 40.2313165,18.6149186 C39.9177291,17.0182433 39.4071987,15.5001761 38.715785,14.1038248 C37.9812636,12.6136508 37.065859,11.2426569 35.9923928,10.0280341 C34.8648306,8.74663661 33.5859689,7.63175319 32.1929985,6.71296753 C30.7273368,5.74515743 29.1585546,4.98105234 27.5306051,4.44262872 C25.8062971,3.87377615 24.0456434,3.53736705 22.3002043,3.44354441 C20.4702402,3.33450729 18.6352046,3.47312813 16.8466577,3.85433542 C14.9989434,4.24061421 13.2196943,4.86778897 11.555399,5.71810946 L11.4176234,5.79080087 C11.3077411,5.84743256 11.1978587,5.90575474 11.0947383,5.96407692 C10.8369374,6.09931676 10.5554695,6.17116292 10.2807635,6.17116292 C9.65274354,6.17116292 9.07797422,5.82714658 8.77960132,5.27435374 C8.56068183,4.87116997 8.51165739,4.40966401 8.64351624,3.97689653 C8.77199408,3.54159329 9.06360499,3.18151722 9.46763401,2.96259773 C9.62400507,2.87807283 9.80235261,2.78340494 10.0043671,2.68028457 C11.9281538,1.69641474 13.9922519,0.967810101 16.1383391,0.514756639 C17.7324787,0.177502289 19.3849405,0.00507149398 21.066986,1.66977543e-13 Z M0.209621751,12.4091005 C0.432767486,12.0879059 0.801296048,11.8960344 1.19349158,11.8960344 C1.43438755,11.8960344 1.66852152,11.9687258 1.86969078,12.1065014 C2.13087272,12.2873847 2.30668451,12.5595548 2.36331619,12.8739875 C2.42079313,13.1867296 2.35232796,13.5045432 2.17059942,13.7674157 C1.95083468,14.0886103 1.58484187,14.2796365 1.19011059,14.2796365 C0.945833627,14.2796365 0.711699655,14.2060999 0.513066141,14.067479 C0.251038952,13.8857505 0.0760724097,13.6144256 0.0194407269,13.3025287 C0.00760724097,13.2382898 0.000845248996,13.1732056 1.46549439e-14,13.1089667 L1.46549439e-14,13.062478 C0.00507149398,12.8300345 0.0760724097,12.604353 0.209621751,12.4091005 Z M3.78079876,7.3266183 C4.10030288,6.86680285 4.62689301,6.59209692 5.18898359,6.59209692 C5.53384518,6.59209692 5.86856378,6.6969078 6.15679369,6.89469606 C6.53123899,7.15249701 6.7814327,7.54131154 6.86342185,7.99098401 C6.945411,8.44065648 6.84736212,8.89540044 6.58702543,9.27153624 C6.2725928,9.73050645 5.74769317,10.0043671 5.18391209,10.0043671 C4.83397901,10.0043671 4.49926041,9.89955624 4.21779249,9.70176798 L4.21610199,9.70092273 C3.83996619,9.44143129 3.58892724,9.0517715 3.50862858,8.60548003 C3.42748468,8.15665281 3.52468831,7.70190885 3.78079876,7.3266183 Z" id="Combined-Shape"></path>
                </g>
            </g>
        </g>
    </g>
</svg>